# xmcd
#
# Track frame offsets: 
#        150
#        60937
#        83832
#        137830
#        188575
#        208822
#        235865
#        273552
#
# Disc length: 4613 seconds
#
# Revision: 1
# Processed by: cddbd v1.5.1PL0 Copyright (c) Steve Scherf et al.
# Submitted via: ExactAudioCopy v0.95b2
#
DISCID=6b120308
DTITLE=Francois Bourassa Trio et André Leroux - Live
DYEAR=2001
DGENRE=Jazz
TTITLE0=30 octobre 85
TTITLE1=W! U! W
TTITLE2=Arico - Afab
TTITLE3=13
TTITLE4=Herbie Nichols (Part 1)
TTITLE5=Herbie Nichols (Part 2)
TTITLE6=Chambrette
TTITLE7=Medley (Four in One - 'Round Midnight - Epistrophy - Trinkle T
TTITLE7=inkle)
EXTD=
EXTT0=
EXTT1=
EXTT2=
EXTT3=
EXTT4=
EXTT5=
EXTT6=
EXTT7=
PLAYORDER=
